<?xml version="1.0" encoding="UTF-8" standalone="no"?>
<svg
   xmlns:dc="http://purl.org/dc/elements/1.1/"
   xmlns:cc="http://creativecommons.org/ns#"
   xmlns:rdf="http://www.w3.org/1999/02/22-rdf-syntax-ns#"
   xmlns:svg="http://www.w3.org/2000/svg"
   xmlns="http://www.w3.org/2000/svg"
   viewBox="0 0 400.67999 231.86932"
   height="231.86932"
   width="400.67999"
   xml:space="preserve"
   id="svg2"
   version="1.1"><metadata
     id="metadata8"><rdf:RDF><cc:Work
         rdf:about=""><dc:format>image/svg+xml</dc:format><dc:type
           rdf:resource="http://purl.org/dc/dcmitype/StillImage" /></cc:Work></rdf:RDF></metadata><defs
     id="defs6"><clipPath
       id="clipPath18"
       clipPathUnits="userSpaceOnUse"><path
         id="path16"
         d="M 0,173.902 H 300.51 V 0 H 0 Z" /></clipPath></defs><g
     transform="matrix(1.3333333,0,0,-1.3333333,0,231.86933)"
     id="g10"><g
       id="g12"><g
         clip-path="url(#clipPath18)"
         id="g14"><g
           transform="translate(85.3587,63.3496)"
           id="g20"><path
             id="path22"
             style="fill:#231f20;fill-opacity:1;fill-rule:nonzero;stroke:none"
             d="m 0,0 c -0.626,0 -1.232,0.293 -1.619,0.816 l -58.532,79.115 c -0.661,0.894 -0.472,2.155 0.422,2.817 0.892,0.661 2.154,0.473 2.817,-0.422 L -2.014,8.123 v 56.77 c 0,1.113 0.901,2.015 2.014,2.015 1.113,0 2.014,-0.902 2.014,-2.015 V 2.014 C 2.014,1.145 1.456,0.374 0.631,0.101 0.423,0.033 0.21,0 0,0" /></g><g
           transform="translate(54.4645,27.4097)"
           id="g24"><path
             id="path26"
             style="fill:#231f20;fill-opacity:1;fill-rule:nonzero;stroke:none"
             d="M 0,0 C -1.347,0 -2.715,0.059 -4.096,0.178 L -4.553,0.22 c -15.489,1.489 -27.166,14.389 -27.166,30.007 v 12.866 c 0,1.113 0.902,2.014 2.014,2.014 1.113,0 2.014,-0.901 2.014,-2.014 V 30.227 c 0,-13.532 10.111,-24.708 23.519,-25.996 l 0.426,-0.04 C 7.718,3.195 20.641,6.463 22.52,18.608 24.102,28.841 18.31,37.23 12.709,45.344 -0.189,64.029 -14.12,82.5 -27.691,100.414 V 83.176 c 0,-1.112 -0.901,-2.014 -2.014,-2.014 -1.112,0 -2.014,0.902 -2.014,2.014 v 23.232 c 0,0.865 0.553,1.634 1.374,1.909 0.818,0.276 1.724,-0.004 2.246,-0.695 l 1.343,-1.772 C -12.445,86.965 2.352,67.437 16.024,47.632 21.791,39.278 28.328,29.81 26.501,17.993 25.436,11.108 21.385,5.88 14.787,2.874 10.649,0.989 5.505,0 0,0" /></g><g
           transform="translate(113.4344,76.5159)"
           id="g28"><path
             id="path30"
             style="fill:#231f20;fill-opacity:1;fill-rule:nonzero;stroke:none"
             d="M 0,0 V 47.652 H 9.979 L 30.553,17.547 v 30.105 h 9.979 V 3.027 L 40.644,2.859 40.532,2.803 V 0 H 30.553 L 9.979,29.993 V 0 Z" /></g><path
           id="path32"
           style="fill:#231f20;fill-opacity:1;fill-rule:nonzero;stroke:none"
           d="m 159.631,110.153 h 9.979 V 76.516 h -9.979 z m 4.989,14.687 c 3.308,0 5.438,-2.186 5.438,-5.494 0,-3.307 -2.13,-5.494 -5.438,-5.494 -3.364,0 -5.549,2.187 -5.549,5.494 0,3.308 2.185,5.494 5.549,5.494" /><g
           transform="translate(175.2728,76.5159)"
           id="g34"><path
             id="path36"
             style="fill:#231f20;fill-opacity:1;fill-rule:nonzero;stroke:none"
             d="M 0,0 V 47.652 H 9.923 V 18.836 l 10.483,14.801 h 10.82 L 20.742,16.818 32.403,0 H 19.789 L 9.923,14.688 V 0 Z" /></g><g
           transform="translate(217.9378,88.3445)"
           id="g38"><path
             id="path40"
             style="fill:#231f20;fill-opacity:1;fill-rule:nonzero;stroke:none"
             d="m 0,0 c -0.057,-2.074 1.793,-3.812 4.036,-3.812 1.906,0.057 2.915,0.673 2.915,1.85 0,1.85 -2.354,2.467 -4.709,3.308 -4.373,1.401 -10.763,2.41 -10.763,10.203 0,6.895 5.437,10.651 12.5,10.651 7.233,0 12.222,-4.821 12.11,-11.772 H 7.231 c 0.113,1.849 -1.401,3.419 -3.307,3.419 -1.458,0 -2.523,-0.728 -2.523,-2.13 0,-1.458 1.625,-1.906 4.541,-2.579 C 10.764,7.961 16.93,6.223 16.93,-1.794 16.93,-7.68 11.268,-12.165 3.756,-12.165 -2.579,-12.165 -9.475,-7.96 -9.419,0 Z" /></g><g
           transform="translate(256.5091,86.1584)"
           id="g42"><path
             id="path44"
             style="fill:#231f20;fill-opacity:1;fill-rule:nonzero;stroke:none"
             d="m 0,0 c 4.372,0 7.399,2.971 7.344,7.176 0,4.148 -3.083,7.287 -7.344,7.287 -4.541,0 -7.4,-2.859 -7.4,-7.231 C -7.4,2.803 -4.541,0 0,0 m 7.344,-6.503 c -1.234,-1.906 -5.046,-3.476 -8.69,-3.476 -9.923,0 -16.033,6.839 -16.033,17.211 0,10.315 6.11,17.154 16.033,17.154 3.644,0 7.401,-1.513 8.69,-3.532 v 3.14 h 9.978 V -9.643 H 7.344 Z" /></g><g
           transform="translate(114.2542,57.6643)"
           id="g46"><path
             id="path48"
             style="fill:#231f20;fill-opacity:1;fill-rule:nonzero;stroke:none"
             d="M 0,0 V 10.83 H 0.701 L 4.893,4.153 9.084,10.83 H 9.785 V 0 H 9.084 V 9.492 L 5.186,3.325 H 4.6 L 0.701,9.492 V 0 Z" /></g><g
           transform="translate(131.8187,61.7922)"
           id="g50"><path
             id="path52"
             style="fill:#231f20;fill-opacity:1;fill-rule:nonzero;stroke:none"
             d="M 0,0 C -0.077,1.669 -1.338,2.943 -2.943,2.943 -4.523,2.943 -5.746,1.707 -5.861,0 Z m 0.42,-1.783 c -0.522,-1.428 -1.834,-2.408 -3.325,-2.408 -2.153,0 -3.669,1.618 -3.669,3.911 0,2.217 1.567,3.899 3.631,3.899 2.038,0 3.644,-1.657 3.644,-3.784 0,-0.128 -0.013,-0.255 -0.026,-0.396 h -6.536 c 0.115,-1.77 1.299,-2.956 2.943,-2.956 1.198,0 2.141,0.702 2.6,1.734 z" /></g><g
           transform="translate(135.4837,66.927)"
           id="g54"><path
             id="path56"
             style="fill:#231f20;fill-opacity:1;fill-rule:nonzero;stroke:none"
             d="M 0,0 V -1.618 H 2.217 V -2.293 H 0 V -6.816 C 0,-8.078 0.433,-8.562 1.529,-8.562 H 2.217 V -9.263 H 1.478 c -1.529,0 -2.179,0.714 -2.179,2.421 v 4.549 h -1.363 v 0.675 h 1.363 L -0.51,0 Z" /></g><g
           transform="translate(142.1449,58.2883)"
           id="g58"><path
             id="path60"
             style="fill:#231f20;fill-opacity:1;fill-rule:nonzero;stroke:none"
             d="m 0,0 c 1.758,0 2.981,1.262 2.969,3.198 0,1.911 -1.249,3.211 -2.982,3.211 -1.745,0 -2.994,-1.274 -2.994,-3.198 C -3.007,1.287 -1.746,0 0,0 M 2.969,1.338 C 2.586,0.09 1.325,-0.7 -0.051,-0.7 c -2.153,0 -3.657,1.566 -3.657,3.911 0,2.357 1.491,3.898 3.657,3.898 1.35,0 2.637,-0.815 3.02,-2.05 v 1.962 h 0.7 v -7.645 h -0.7 z" /></g><path
           id="path62"
           style="fill:#231f20;fill-opacity:1;fill-rule:nonzero;stroke:none"
           d="m 147.377,68.494 h 0.701 v -10.83 h -0.701 z" /><g
           transform="translate(152.5848,57.6643)"
           id="g64"><path
             id="path66"
             style="fill:#231f20;fill-opacity:1;fill-rule:nonzero;stroke:none"
             d="M 0,0 V 10.83 H 0.701 L 4.893,4.153 9.084,10.83 H 9.786 V 0 H 9.084 V 9.492 L 5.186,3.325 H 4.6 L 0.701,9.492 V 0 Z" /></g><g
           transform="translate(167.1292,58.2883)"
           id="g68"><path
             id="path70"
             style="fill:#231f20;fill-opacity:1;fill-rule:nonzero;stroke:none"
             d="m 0,0 c 1.759,0 2.981,1.262 2.969,3.198 0,1.911 -1.248,3.211 -2.982,3.211 -1.745,0 -2.994,-1.274 -2.994,-3.198 C -3.007,1.287 -1.745,0 0,0 M 2.969,1.338 C 2.587,0.09 1.325,-0.7 -0.051,-0.7 c -2.153,0 -3.656,1.566 -3.656,3.911 0,2.357 1.49,3.898 3.656,3.898 1.351,0 2.638,-0.815 3.02,-2.05 V 7.021 H 3.67 V -0.624 H 2.969 Z" /></g><g
           transform="translate(172.2718,57.6643)"
           id="g72"><path
             id="path74"
             style="fill:#231f20;fill-opacity:1;fill-rule:nonzero;stroke:none"
             d="M 0,0 V 10.83 H 0.701 V 3.924 l 3.861,3.721 h 0.84 L 1.517,3.822 5.683,0 H 4.74 L 0.701,3.721 V 0 Z" /></g><g
           transform="translate(179.1488,58.5813)"
           id="g76"><path
             id="path78"
             style="fill:#231f20;fill-opacity:1;fill-rule:nonzero;stroke:none"
             d="M 0,0 C 0.293,0 0.484,-0.203 0.484,-0.496 0.484,-0.79 0.293,-0.993 0,-0.993 c -0.306,0 -0.497,0.203 -0.497,0.497 C -0.497,-0.203 -0.306,0 0,0" /></g><g
           transform="translate(183.9495,57.6643)"
           id="g80"><path
             id="path82"
             style="fill:#231f20;fill-opacity:1;fill-rule:nonzero;stroke:none"
             d="M 0,0 V 10.83 H 0.701 L 4.893,4.153 9.085,10.83 h 0.7 V 0 h -0.7 V 9.492 L 5.186,3.325 H 4.6 L 0.701,9.492 V 0 Z" /></g><g
           transform="translate(195.5247,61.4992)"
           id="g84"><path
             id="path86"
             style="fill:#231f20;fill-opacity:1;fill-rule:nonzero;stroke:none"
             d="M 0,0 C 0,-1.822 1.312,-3.211 2.981,-3.211 4.664,-3.211 5.95,-1.822 5.95,0 5.95,1.81 4.664,3.198 2.981,3.198 1.312,3.198 0,1.81 0,0 m 2.981,3.898 c 2.078,0 3.67,-1.694 3.67,-3.898 0,-2.217 -1.592,-3.911 -3.67,-3.911 -2.063,0 -3.681,1.694 -3.681,3.911 0,2.204 1.618,3.898 3.681,3.898" /></g><g
           transform="translate(207.1536,64.6975)"
           id="g88"><path
             id="path90"
             style="fill:#231f20;fill-opacity:1;fill-rule:nonzero;stroke:none"
             d="m 0,0 c -1.732,0 -2.981,-1.3 -2.981,-3.211 -0.013,-1.936 1.21,-3.198 2.968,-3.198 1.746,0 3.007,1.287 3.007,3.211 C 2.994,-1.274 1.746,0 0,0 M -3.682,-7.033 V 3.81 h 0.701 v -5.161 c 0.382,1.236 1.669,2.051 3.019,2.051 2.166,0 3.657,-1.541 3.657,-3.898 0,-2.345 -1.504,-3.911 -3.657,-3.911 -1.376,0 -2.637,0.79 -3.019,2.038 v -1.962 z" /></g><g
           transform="translate(211.9652,58.5813)"
           id="g92"><path
             id="path94"
             style="fill:#231f20;fill-opacity:1;fill-rule:nonzero;stroke:none"
             d="M 0,0 C 0.293,0 0.484,-0.203 0.484,-0.496 0.484,-0.79 0.293,-0.993 0,-0.993 c -0.306,0 -0.497,0.203 -0.497,0.497 C -0.497,-0.203 -0.306,0 0,0" /></g><g
           transform="translate(217.4027,63.0793)"
           id="g96"><path
             id="path98"
             style="fill:#231f20;fill-opacity:1;fill-rule:nonzero;stroke:none"
             d="m 0,0 c 0,-2.828 1.721,-4.804 4.18,-4.804 2.459,0 4.178,1.989 4.178,4.804 0,2.841 -1.707,4.791 -4.178,4.791 C 1.721,4.791 0,2.815 0,0 m 4.18,5.479 c 2.866,0 4.88,-2.255 4.88,-5.479 0,-3.224 -2.014,-5.491 -4.88,-5.491 -2.868,0 -4.88,2.267 -4.88,5.491 0,3.211 2.012,5.479 4.88,5.479" /></g><g
           transform="translate(229.3861,66.927)"
           id="g100"><path
             id="path102"
             style="fill:#231f20;fill-opacity:1;fill-rule:nonzero;stroke:none"
             d="M 0,0 V -1.618 H 2.217 V -2.293 H 0 V -6.816 C 0,-8.078 0.434,-8.562 1.529,-8.562 H 2.217 V -9.263 H 1.479 c -1.53,0 -2.179,0.714 -2.179,2.421 v 4.549 h -1.363 v 0.675 H -0.7 L -0.51,0 Z" /></g><g
           transform="translate(233.0784,61.4992)"
           id="g104"><path
             id="path106"
             style="fill:#231f20;fill-opacity:1;fill-rule:nonzero;stroke:none"
             d="M 0,0 C 0,-1.822 1.312,-3.211 2.981,-3.211 4.664,-3.211 5.95,-1.822 5.95,0 5.95,1.81 4.664,3.198 2.981,3.198 1.312,3.198 0,1.81 0,0 m 2.981,3.898 c 2.078,0 3.67,-1.694 3.67,-3.898 0,-2.217 -1.592,-3.911 -3.67,-3.911 -2.063,0 -3.681,1.694 -3.681,3.911 0,2.204 1.618,3.898 3.681,3.898" /></g><g
           transform="translate(244.1087,64.6975)"
           id="g108"><path
             id="path110"
             style="fill:#231f20;fill-opacity:1;fill-rule:nonzero;stroke:none"
             d="m 0,0 c -1.401,0 -2.408,-1.338 -2.408,-3.211 v -3.822 h -0.7 v 7.644 h 0.7 V -1.351 C -2.103,-0.166 -1.159,0.7 0.089,0.7 1.517,0.7 2.562,-0.128 3.007,-1.517 3.453,-0.128 4.421,0.7 5.683,0.7 7.657,0.7 8.919,-0.828 8.919,-3.198 V -7.033 H 8.218 v 3.835 C 8.218,-1.236 7.225,0 5.67,0 4.269,0 3.249,-1.338 3.249,-3.211 v -3.822 h -0.7 v 3.835 C 2.549,-1.236 1.555,0 0,0" /></g><g
           transform="translate(254.9056,61.4992)"
           id="g112"><path
             id="path114"
             style="fill:#231f20;fill-opacity:1;fill-rule:nonzero;stroke:none"
             d="M 0,0 C 0,-1.822 1.312,-3.211 2.981,-3.211 4.664,-3.211 5.95,-1.822 5.95,0 5.95,1.81 4.664,3.198 2.981,3.198 1.312,3.198 0,1.81 0,0 m 2.981,3.898 c 2.078,0 3.67,-1.694 3.67,-3.898 0,-2.217 -1.592,-3.911 -3.67,-3.911 -2.063,0 -3.681,1.694 -3.681,3.911 0,2.204 1.618,3.898 3.681,3.898" /></g><g
           transform="translate(264.47,66.927)"
           id="g116"><path
             id="path118"
             style="fill:#231f20;fill-opacity:1;fill-rule:nonzero;stroke:none"
             d="M 0,0 V -1.618 H 2.217 V -2.293 H 0 V -6.816 C 0,-8.078 0.434,-8.562 1.529,-8.562 H 2.217 V -9.263 H 1.479 c -1.53,0 -2.179,0.714 -2.179,2.421 v 4.549 h -1.363 v 0.675 H -0.7 L -0.51,0 Z" /></g><path
           id="path120"
           style="fill:#231f20;fill-opacity:1;fill-rule:nonzero;stroke:none"
           d="m 267.895,65.309 h 0.7 v -7.645 h -0.7 z m 0.356,2.93 c 0.293,0 0.485,-0.191 0.485,-0.497 0,-0.293 -0.192,-0.497 -0.485,-0.497 -0.318,0 -0.497,0.204 -0.497,0.497 0,0.306 0.179,0.497 0.497,0.497" /><g
           transform="translate(272.761,57.6643)"
           id="g122"><path
             id="path124"
             style="fill:#231f20;fill-opacity:1;fill-rule:nonzero;stroke:none"
             d="m 0,0 -3.274,7.645 h 0.751 L 0.369,0.879 3.274,7.645 H 4.025 L 0.751,0 Z" /></g><path
           id="path126"
           style="fill:#231f20;fill-opacity:1;fill-rule:nonzero;stroke:none"
           d="m 114.433,53.007 h 0.701 v -10.83 h -0.701 z m 0.356,2.931 c 0.293,0 0.485,-0.192 0.485,-0.497 0,-0.293 -0.192,-0.497 -0.485,-0.497 -0.318,0 -0.497,0.204 -0.497,0.497 0,0.305 0.179,0.497 0.497,0.497" /><g
           transform="translate(119.8846,49.2102)"
           id="g128"><path
             id="path130"
             style="fill:#231f20;fill-opacity:1;fill-rule:nonzero;stroke:none"
             d="m 0,0 c -1.401,0 -2.408,-1.338 -2.408,-3.211 v -3.822 h -0.701 v 7.644 h 0.701 v -1.962 c 0.306,1.185 1.249,2.051 2.497,2.051 1.937,0 3.16,-1.528 3.16,-3.898 V -7.033 H 2.548 v 3.835 C 2.548,-1.236 1.555,0 0,0" /></g><g
           transform="translate(125.1424,44.4065)"
           id="g132"><path
             id="path134"
             style="fill:#231f20;fill-opacity:1;fill-rule:nonzero;stroke:none"
             d="m 0,0 c 0.077,-0.93 1.045,-1.669 2.204,-1.682 1.109,-0.025 1.95,0.536 1.95,1.414 0,0.944 -0.612,1.376 -2.268,1.785 -1.338,0.343 -2.268,0.942 -2.268,2.088 0,1.123 1.109,1.899 2.548,1.899 1.363,0 2.332,-0.751 2.574,-1.975 H 4.09 C 3.912,4.332 3.147,4.88 2.166,4.88 1.134,4.893 0.319,4.345 0.319,3.605 0.306,2.549 1.656,2.229 2.09,2.115 3.287,1.797 4.854,1.491 4.854,-0.28 c 0,-1.096 -0.93,-1.861 -2.242,-2 L 2.179,-4.357 H 1.465 l 0.561,2.051 C 0.65,-2.242 -0.611,-1.3 -0.675,0 Z" /></g><g
           transform="translate(134.7205,42.801)"
           id="g136"><path
             id="path138"
             style="fill:#231f20;fill-opacity:1;fill-rule:nonzero;stroke:none"
             d="m 0,0 c 1.758,0 2.981,1.262 2.969,3.198 0,1.911 -1.249,3.211 -2.982,3.211 -1.745,0 -2.994,-1.274 -2.994,-3.198 C -3.007,1.287 -1.746,0 0,0 M 2.969,1.338 C 2.586,0.09 1.325,-0.7 -0.051,-0.7 c -2.153,0 -3.657,1.566 -3.657,3.911 0,2.357 1.491,3.898 3.657,3.898 1.35,0 2.637,-0.815 3.02,-2.05 v 1.962 h 0.7 v -7.645 h -0.7 z" /></g><g
           transform="translate(143.5711,42.801)"
           id="g140"><path
             id="path142"
             style="fill:#231f20;fill-opacity:1;fill-rule:nonzero;stroke:none"
             d="m 0,0 c 1.758,0 2.981,1.262 2.969,3.198 0,1.911 -1.249,3.211 -2.982,3.211 -1.745,0 -2.994,-1.274 -2.994,-3.198 C -3.007,1.287 -1.746,0 0,0 M 2.969,1.338 C 2.586,0.09 1.325,-0.7 -0.051,-0.7 c -2.153,0 -3.657,1.566 -3.657,3.911 0,2.357 1.491,3.898 3.657,3.898 1.35,0 2.637,-0.815 3.02,-2.05 v 1.962 h 0.7 v -7.645 h -0.7 z" /></g><g
           transform="translate(150.765,51.4397)"
           id="g144"><path
             id="path146"
             style="fill:#231f20;fill-opacity:1;fill-rule:nonzero;stroke:none"
             d="M 0,0 V -1.618 H 2.217 V -2.293 H 0 V -6.816 C 0,-8.078 0.433,-8.562 1.529,-8.562 H 2.217 V -9.263 H 1.478 c -1.529,0 -2.179,0.714 -2.179,2.421 v 4.549 h -1.363 v 0.675 h 1.363 L -0.51,0 Z" /></g><g
           transform="translate(158.3411,45.2092)"
           id="g148"><path
             id="path150"
             style="fill:#231f20;fill-opacity:1;fill-rule:nonzero;stroke:none"
             d="m 0,0 c 0.14,-1.452 1.452,-2.434 3.135,-2.434 1.758,0 2.879,1.109 2.917,2.282 0.038,1.707 -1.618,2.139 -3.007,2.497 -1.669,0.432 -3.376,0.636 -3.376,2.904 0.025,1.733 1.58,2.612 3.453,2.612 1.834,0 3.3,-1.083 3.389,-2.777 H 5.81 C 5.695,6.358 4.574,7.187 3.122,7.187 1.58,7.187 0.395,6.485 0.37,5.249 0.332,3.593 1.72,3.377 3.16,3.02 4.804,2.65 6.791,2.001 6.753,-0.165 6.728,-1.593 5.39,-3.108 3.147,-3.108 c -2.089,0 -3.695,1.21 -3.848,3.108 z" /></g><g
           transform="translate(169.8919,42.801)"
           id="g152"><path
             id="path154"
             style="fill:#231f20;fill-opacity:1;fill-rule:nonzero;stroke:none"
             d="m 0,0 c 1.759,0 2.981,1.262 2.969,3.198 0,1.911 -1.248,3.211 -2.982,3.211 -1.745,0 -2.994,-1.274 -2.994,-3.198 C -3.007,1.287 -1.745,0 0,0 M 2.969,1.338 C 2.587,0.09 1.325,-0.7 -0.051,-0.7 c -2.153,0 -3.656,1.566 -3.656,3.911 0,2.357 1.49,3.898 3.656,3.898 1.351,0 2.638,-0.815 3.02,-2.05 V 7.021 H 3.67 V -0.624 H 2.969 Z" /></g><g
           transform="translate(178.3988,49.2102)"
           id="g156"><path
             id="path158"
             style="fill:#231f20;fill-opacity:1;fill-rule:nonzero;stroke:none"
             d="m 0,0 c -1.401,0 -2.408,-1.338 -2.408,-3.211 v -3.822 h -0.7 v 7.644 h 0.7 v -1.962 c 0.305,1.185 1.249,2.051 2.497,2.051 1.937,0 3.16,-1.528 3.16,-3.898 V -7.033 H 2.548 v 3.835 C 2.548,-1.236 1.555,0 0,0" /></g><g
           transform="translate(183.5804,43.094)"
           id="g160"><path
             id="path162"
             style="fill:#231f20;fill-opacity:1;fill-rule:nonzero;stroke:none"
             d="M 0,0 C 0.293,0 0.484,-0.203 0.484,-0.496 0.484,-0.79 0.293,-0.993 0,-0.993 c -0.306,0 -0.497,0.203 -0.497,0.497 C -0.497,-0.203 -0.306,0 0,0" /></g><g
           transform="translate(191.6175,42.177)"
           id="g164"><path
             id="path166"
             style="fill:#231f20;fill-opacity:1;fill-rule:nonzero;stroke:none"
             d="m 0,0 -3.274,7.645 h 0.751 L 0.369,0.879 3.274,7.645 H 4.025 L 0.751,0 Z" /></g><g
           transform="translate(202.9271,46.3049)"
           id="g168"><path
             id="path170"
             style="fill:#231f20;fill-opacity:1;fill-rule:nonzero;stroke:none"
             d="M 0,0 C -0.076,1.669 -1.337,2.943 -2.942,2.943 -4.522,2.943 -5.746,1.707 -5.86,0 Z m 0.421,-1.783 c -0.523,-1.428 -1.835,-2.408 -3.325,-2.408 -2.154,0 -3.67,1.618 -3.67,3.911 0,2.217 1.567,3.898 3.632,3.898 2.038,0 3.643,-1.656 3.643,-3.783 0,-0.128 -0.013,-0.255 -0.025,-0.396 H -5.86 c 0.114,-1.77 1.299,-2.956 2.943,-2.956 1.197,0 2.141,0.702 2.599,1.734 z" /></g><g
           transform="translate(211.6615,42.177)"
           id="g172"><path
             id="path174"
             style="fill:#231f20;fill-opacity:1;fill-rule:nonzero;stroke:none"
             d="M 0,0 V 10.129 H -3.542 V 10.83 H 4.256 V 10.129 H 0.701 L 0.701,0 Z" /></g><path
           id="path176"
           style="fill:#231f20;fill-opacity:1;fill-rule:nonzero;stroke:none"
           d="m 217.161,49.822 h 0.7 v -7.645 h -0.7 z m 0.357,2.93 c 0.293,0 0.484,-0.191 0.484,-0.497 0,-0.293 -0.191,-0.497 -0.484,-0.497 -0.318,0 -0.497,0.204 -0.497,0.497 0,0.306 0.179,0.497 0.497,0.497" /><g
           transform="translate(220.0394,46.0246)"
           id="g178"><path
             id="path180"
             style="fill:#231f20;fill-opacity:1;fill-rule:nonzero;stroke:none"
             d="m 0,0 c 0,-1.937 1.21,-3.211 2.955,-3.211 1.39,0 2.485,0.828 2.88,2.256 H 6.574 C 6.115,-2.828 4.777,-3.911 2.955,-3.911 c -2.166,0 -3.656,1.554 -3.656,3.911 0,2.345 1.49,3.898 3.656,3.898 1.81,0 3.16,-1.082 3.619,-2.942 H 5.835 C 5.401,2.408 4.345,3.198 2.955,3.198 1.21,3.198 0,1.937 0,0" /></g><g
           transform="translate(228.1126,43.094)"
           id="g182"><path
             id="path184"
             style="fill:#231f20;fill-opacity:1;fill-rule:nonzero;stroke:none"
             d="M 0,0 C 0.293,0 0.484,-0.203 0.484,-0.496 0.484,-0.79 0.293,-0.993 0,-0.993 c -0.306,0 -0.497,0.203 -0.497,0.497 C -0.497,-0.203 -0.306,0 0,0" /></g><g
           transform="translate(239.6019,42.177)"
           id="g186"><path
             id="path188"
             style="fill:#231f20;fill-opacity:1;fill-rule:nonzero;stroke:none"
             d="m 0,0 h -6.294 v 10.83 h 0.701 V 0.701 l 5.593,0 z" /></g><g
           transform="translate(242.6683,51.4397)"
           id="g190"><path
             id="path192"
             style="fill:#231f20;fill-opacity:1;fill-rule:nonzero;stroke:none"
             d="M 0,0 V -1.618 H 2.217 V -2.293 H 0 V -6.816 C 0,-8.078 0.434,-8.562 1.529,-8.562 H 2.217 V -9.263 H 1.479 c -1.53,0 -2.179,0.714 -2.179,2.421 v 4.549 h -1.363 v 0.675 H -0.7 L -0.51,0 Z" /></g><g
           transform="translate(249.7122,42.801)"
           id="g194"><path
             id="path196"
             style="fill:#231f20;fill-opacity:1;fill-rule:nonzero;stroke:none"
             d="M 0,0 C 1.759,0 2.981,1.262 2.981,3.198 2.981,5.109 1.732,6.409 0,6.409 -1.745,6.409 -2.994,5.135 -2.994,3.211 -2.994,1.287 -1.732,0 0,0 M 2.981,1.338 C 2.6,0.09 1.338,-0.7 -0.038,-0.7 c -2.166,0 -3.657,1.566 -3.657,3.911 0,2.357 1.491,3.898 3.657,3.898 1.35,0 2.638,-0.815 3.019,-2.05 v 5.16 H 3.683 V -0.624 H 2.981 Z" /></g><g
           transform="translate(255.3519,43.094)"
           id="g198"><path
             id="path200"
             style="fill:#231f20;fill-opacity:1;fill-rule:nonzero;stroke:none"
             d="M 0,0 C 0.293,0 0.484,-0.203 0.484,-0.496 0.484,-0.79 0.293,-0.993 0,-0.993 c -0.306,0 -0.497,0.203 -0.497,0.497 C -0.497,-0.203 -0.306,0 0,0" /></g><g
           transform="translate(261.1976,45.2092)"
           id="g202"><path
             id="path204"
             style="fill:#231f20;fill-opacity:1;fill-rule:nonzero;stroke:none"
             d="m 0,0 c 0.14,-1.452 1.452,-2.434 3.134,-2.434 1.759,0 2.88,1.109 2.918,2.282 0.038,1.707 -1.618,2.139 -3.007,2.497 -1.669,0.432 -3.377,0.636 -3.377,2.904 0.025,1.733 1.58,2.612 3.453,2.612 1.835,0 3.3,-1.083 3.389,-2.777 H 5.81 C 5.695,6.358 4.573,7.187 3.121,7.187 1.579,7.187 0.395,6.485 0.369,5.249 0.331,3.593 1.72,3.377 3.159,3.02 4.803,2.65 6.791,2.001 6.752,-0.165 6.727,-1.503 5.555,-2.905 3.567,-3.083 L 3.134,-5.16 H 2.42 l 0.574,2.052 C 0.98,-3.045 -0.548,-1.848 -0.701,0 Z" /></g><g
           transform="translate(270.9896,51.4397)"
           id="g206"><path
             id="path208"
             style="fill:#231f20;fill-opacity:1;fill-rule:nonzero;stroke:none"
             d="M 0,0 V -1.618 H 2.217 V -2.293 H 0 V -6.816 C 0,-8.078 0.434,-8.562 1.529,-8.562 H 2.217 V -9.263 H 1.479 c -1.53,0 -2.179,0.714 -2.179,2.421 v 4.549 h -1.363 v 0.675 H -0.7 L -0.51,0 Z" /></g><path
           id="path210"
           style="fill:#231f20;fill-opacity:1;fill-rule:nonzero;stroke:none"
           d="m 274.606,49.822 h 0.7 v -7.645 h -0.7 z m 0.356,2.93 c 0.293,0 0.485,-0.191 0.485,-0.497 0,-0.293 -0.192,-0.497 -0.485,-0.497 -0.318,0 -0.497,0.204 -0.497,0.497 0,0.306 0.179,0.497 0.497,0.497" /><g
           transform="translate(277.2806,43.094)"
           id="g212"><path
             id="path214"
             style="fill:#231f20;fill-opacity:1;fill-rule:nonzero;stroke:none"
             d="M 0,0 C 0.293,0 0.484,-0.203 0.484,-0.496 0.484,-0.79 0.293,-0.993 0,-0.993 c -0.306,0 -0.497,0.203 -0.497,0.497 C -0.497,-0.203 -0.306,0 0,0" /></g></g></g></g></svg>